<svg id='Guitar_24' width='24' height='24' viewBox='0 0 24 24' xmlns='http://www.w3.org/2000/svg' xmlns:xlink='http://www.w3.org/1999/xlink'><rect width='24' height='24' stroke='none' fill='#000000' opacity='0'/>


<g transform="matrix(0.42 0 0 0.42 12 12)" >
<g style="" >
<g transform="matrix(1 0 0 1 -5.03 5.03)" >
<path style="stroke: none; stroke-width: 1; stroke-dasharray: none; stroke-linecap: butt; stroke-dashoffset: 0; stroke-linejoin: miter; stroke-miterlimit: 4; fill: rgb(255,152,0); fill-rule: nonzero; opacity: 1;" transform=" translate(-18.97, -29.03)" d="M 27.515 31.216 C 28.828 29.903000000000002 31.398 28.639000000000003 32.258 27.276 C 34.462 23.781 30.768000000000004 20.576999999999998 29.096000000000004 18.905 C 27.423000000000002 17.232 24.219000000000005 13.538 20.724000000000004 15.742 C 19.361000000000004 16.602 18.096000000000004 19.173000000000002 16.784000000000002 20.485 C 14.679000000000002 22.589 10.354000000000003 21.97 7.292000000000002 25.033 C 5.865 26.458 5 28.094 5 29.817 C 5 32.68 6.856 35.245 9.863 38.135 C 12.754 41.141 15.318999999999999 42.998 18.180999999999997 42.998999999999995 C 19.904999999999998 42.998999999999995 21.54 42.132999999999996 22.965999999999998 40.706999999999994 C 26.029 37.646 25.41 33.322 27.515 31.216 z" stroke-linecap="round" />
</g>
<g transform="matrix(1 0 0 1 14.58 -14.58)" >
<path style="stroke: none; stroke-width: 1; stroke-dasharray: none; stroke-linecap: butt; stroke-dashoffset: 0; stroke-linejoin: miter; stroke-miterlimit: 4; fill: rgb(93,64,55); fill-rule: nonzero; opacity: 1;" transform=" translate(-38.58, -9.42)" d="M 42.14 10.847 C 42.337 11.043999999999999 42.656 11.043999999999999 42.853 10.847 C 43.049 10.651 43.049 10.331 42.853 10.135 L 41.785000000000004 9.067 L 41.072 9.779 L 42.14 10.847 z M 35.727 7.284 L 36.796 8.353 L 37.508 7.638999999999999 L 36.440000000000005 6.571 C 36.243 6.375 35.92400000000001 6.375 35.727000000000004 6.571 C 35.53 6.769 35.53 7.087 35.727 7.284 z M 37.152 5.859 L 38.221000000000004 6.927 L 38.93300000000001 6.215 L 37.864000000000004 5.146 C 37.668000000000006 4.95 37.349000000000004 4.95 37.152 5.146 C 36.955 5.344 36.955 5.662 37.152 5.859 z M 41.428 11.56 L 40.358999999999995 10.492 L 39.64699999999999 11.204 L 40.71499999999999 12.273 C 40.91199999999999 12.469 41.23099999999999 12.469 41.42799999999999 12.273 C 41.624 12.075 41.624 11.757 41.428 11.56 z M 36.083 9.066 L 35.015 7.996 C 34.818 7.800000000000001 34.499 7.800000000000001 34.302 7.996 C 34.106 8.194 34.106 8.512 34.302 8.71 L 35.371 9.778 L 36.083 9.066 z M 40.003 12.984 L 38.934 11.916 L 38.221999999999994 12.628 L 39.28999999999999 13.697 C 39.486999999999995 13.892999999999999 39.80599999999999 13.892999999999999 40.00299999999999 13.697 C 40.199 13.5 40.199 13.182 40.003 12.984 z" stroke-linecap="round" />
</g>
<g transform="matrix(0.71 0.71 -0.71 0.71 -6.3 6.3)" >
<path style="stroke: none; stroke-width: 1; stroke-dasharray: none; stroke-linecap: butt; stroke-dashoffset: 0; stroke-linejoin: miter; stroke-miterlimit: 4; fill: rgb(93,64,55); fill-rule: nonzero; opacity: 1;" transform=" translate(-17.7, -30.3)" d="M 13.67 29.291 L 21.731 29.291 L 21.731 31.307000000000002 L 13.67 31.307000000000002 z" stroke-linecap="round" />
</g>
<g transform="matrix(1 0 0 1 2.03 -2.03)" >
<path style="stroke: none; stroke-width: 1; stroke-dasharray: none; stroke-linecap: butt; stroke-dashoffset: 0; stroke-linejoin: miter; stroke-miterlimit: 4; fill: rgb(93,64,55); fill-rule: nonzero; opacity: 1;" transform=" translate(-26.03, -21.97)" d="M 19.126 33.147 C 18.732000000000003 33.542 18.095000000000002 33.542 17.701 33.147 L 14.851 30.296999999999997 C 14.456000000000001 29.903 14.456000000000001 29.266 14.851 28.871999999999996 L 14.851 28.871999999999996 C 15.245000000000001 28.477999999999998 15.882000000000001 28.477999999999998 16.276 28.871999999999996 L 19.126 31.721999999999998 C 19.521 32.117 19.521 32.754 19.126 33.147 L 19.126 33.147 z M 37.501 13.349 L 34.658 10.491 L 22.684 22.466 L 25.533 25.315 z" stroke-linecap="round" />
</g>
<g transform="matrix(1 0 0 1 -1.32 1.32)" >
<path style="stroke: none; stroke-width: 1; stroke-dasharray: none; stroke-linecap: butt; stroke-dashoffset: 0; stroke-linejoin: miter; stroke-miterlimit: 4; fill: rgb(62,39,35); fill-rule: nonzero; opacity: 1;" transform=" translate(-22.68, -25.32)" d="M 22.683 22.294 C 21.603343368506717 22.29399997181378 20.60569948790148 22.869989911685362 20.065871164018176 23.804999977225176 C 19.526042840134874 24.74001004276499 19.526042840134874 25.89198995723501 20.065871164018176 26.827000022774822 C 20.60569948790148 27.762010088314636 21.603343368506717 28.338000028186215 22.683 28.337999999999997 C 23.762656631493282 28.33800002818622 24.76030051209852 27.762010088314636 25.300128835981823 26.827000022774822 C 25.839957159865126 25.89198995723501 25.839957159865126 24.74001004276499 25.300128835981823 23.804999977225176 C 24.76030051209852 22.869989911685362 23.762656631493282 22.29399997181378 22.683 22.294 Z" stroke-linecap="round" />
</g>
<g transform="matrix(1 0 0 1 14.22 -14.22)" >
<path style="stroke: none; stroke-width: 1; stroke-dasharray: none; stroke-linecap: butt; stroke-dashoffset: 0; stroke-linejoin: miter; stroke-miterlimit: 4; fill: rgb(193,102,41); fill-rule: nonzero; opacity: 1;" transform=" translate(-38.22, -9.78)" d="M 42.496 8.354 L 39.646 5.502999999999999 C 39.251 5.108999999999999 38.615 5.108999999999999 38.221000000000004 5.502999999999999 L 33.946000000000005 9.777999999999999 C 33.55200000000001 10.171999999999999 33.55200000000001 10.809 33.946000000000005 11.203 L 36.79600000000001 14.052999999999999 C 37.19100000000001 14.449 37.827000000000005 14.449 38.22200000000001 14.052999999999999 L 42.49600000000001 9.779 C 42.89 9.384 42.89 8.747 42.496 8.354 z M 36.439 10.847 C 36.242 11.043999999999999 35.923 11.043999999999999 35.726 10.847 C 35.53 10.651 35.53 10.331 35.726 10.135 L 38.577999999999996 7.284 C 38.773999999999994 7.087 39.093999999999994 7.087 39.29 7.284 C 39.487 7.481 39.487 7.8 39.29 7.9959999999999996 L 36.439 10.847 z M 37.864 12.272 C 37.668 12.468 37.349 12.468 37.151999999999994 12.272 C 36.95499999999999 12.075000000000001 36.95499999999999 11.756 37.151999999999994 11.559000000000001 L 40.00299999999999 8.709000000000001 C 40.19899999999999 8.511000000000001 40.51899999999999 8.511000000000001 40.714999999999996 8.709000000000001 C 40.912 8.905000000000001 40.912 9.225000000000001 40.714999999999996 9.421000000000001 L 37.864 12.272 z" stroke-linecap="round" />
</g>
</g>
</g>
</svg>
